<svg width="238" height="40" viewBox="0 0 238 40" fill="none" xmlns="http://www.w3.org/2000/svg">
<path d="M132 18.1388V16.3901C131.993 16.2869 131.949 16.1899 131.877 16.1179C131.805 16.0459 131.709 16.0039 131.609 16H122.394C122.29 16.0028 122.192 16.0463 122.118 16.1216C122.045 16.1969 122.003 16.2982 122 16.4046V18.1277C122.003 18.2335 122.045 18.3342 122.117 18.4098C122.189 18.4854 122.286 18.5303 122.389 18.5356H125.404C125.457 18.5375 125.507 18.5601 125.544 18.5986C125.581 18.6371 125.602 18.6887 125.604 18.7429V28.5832C125.604 28.6905 125.644 28.7938 125.716 28.8714C125.788 28.9491 125.886 28.9951 125.991 29H128.004C128.105 28.9953 128.201 28.9515 128.272 28.8773C128.344 28.8032 128.385 28.7041 128.389 28.5999V18.6916C128.4 18.6472 128.425 18.6077 128.46 18.579C128.494 18.5503 128.537 18.5339 128.582 18.5322H131.611C131.711 18.527 131.806 18.4839 131.877 18.4114C131.949 18.3388 131.992 18.2418 131.998 18.1388" fill="white"/>
<path d="M138.134 20.2094C137.79 19.8002 137.336 19.4889 136.822 19.3089C136.149 19.085 135.44 18.9813 134.729 19.0028C133.967 19.0008 133.21 19.123 132.491 19.3641C131.922 19.5517 131.391 19.8311 130.92 20.1902C130.844 20.2705 130.803 20.3762 130.805 20.485C130.808 20.5939 130.854 20.6976 130.935 20.7744V20.7744L131.837 21.6636C131.878 21.7029 131.927 21.7341 131.98 21.7554C132.034 21.7767 132.091 21.7877 132.149 21.7877C132.207 21.7877 132.264 21.7767 132.317 21.7554C132.371 21.7341 132.419 21.7029 132.46 21.6636V21.6636C132.682 21.4739 132.928 21.312 133.192 21.1818C133.596 20.989 134.043 20.8907 134.494 20.8948C134.968 20.8879 135.43 21.0426 135.797 21.3315C136.138 21.6028 136.321 22.0868 136.345 22.8645C136.337 22.9145 136.31 22.96 136.27 22.9931C136.231 23.0262 136.18 23.0448 136.127 23.0457V23.0457C135.789 23.0457 135.425 23.0457 135.045 23.0649C134.575 23.0772 134.106 23.1148 133.64 23.1774C133.18 23.238 132.726 23.334 132.282 23.4645C131.864 23.5846 131.468 23.7694 131.111 24.0115C130.773 24.2438 130.495 24.5486 130.3 24.9018C130.089 25.3105 129.987 25.7628 130.001 26.2187C129.991 26.6351 130.083 27.0479 130.272 27.423C130.445 27.7621 130.695 28.0597 131.004 28.2942C131.323 28.5351 131.687 28.715 132.076 28.8243C132.482 28.9416 132.904 29.0008 133.328 28.9999C133.907 29.0035 134.481 28.8964 135.016 28.6848C135.431 28.5225 135.797 28.2633 136.082 27.9306H136.111C136.141 27.9173 136.174 27.9129 136.206 27.9182C136.238 27.9234 136.268 27.9379 136.291 27.9599C136.321 27.987 136.338 28.0242 136.339 28.0635V28.3887C136.343 28.4947 136.388 28.5955 136.465 28.6708C136.543 28.7462 136.647 28.7906 136.757 28.7951H138.581C138.693 28.7908 138.798 28.7458 138.875 28.6695C138.953 28.5931 138.997 28.4911 138.999 28.3842V24.2129C139.007 23.3659 138.942 22.5197 138.806 21.6827C138.698 21.1566 138.464 20.6619 138.122 20.2375L138.134 20.2094ZM136.352 25.415C136.358 25.6733 136.295 25.9287 136.168 26.1568C136.046 26.3651 135.875 26.5431 135.668 26.6768C135.452 26.8152 135.215 26.9208 134.966 26.9897C134.7 27.0659 134.424 27.1038 134.146 27.1022C133.82 27.1022 133.499 27.0191 133.217 26.8614C133.077 26.7915 132.961 26.6844 132.883 26.5528C132.805 26.4213 132.768 26.2709 132.776 26.1196C132.769 25.984 132.794 25.8485 132.849 25.7234C132.904 25.5982 132.987 25.4867 133.094 25.397C133.32 25.217 133.583 25.084 133.865 25.0065C134.173 24.9201 134.49 24.8676 134.81 24.85C135.143 24.8312 135.417 24.8219 135.63 24.8219H136.131C136.186 24.8257 136.238 24.8493 136.277 24.888C136.315 24.9267 136.338 24.9777 136.339 25.0312L136.352 25.415Z" fill="white"/>
<path d="M165.127 20.2093C164.784 19.8 164.331 19.4887 163.818 19.3089C163.145 19.0851 162.437 18.9814 161.726 19.0027C160.964 19.0013 160.207 19.1235 159.488 19.364C158.92 19.5508 158.39 19.8303 157.921 20.1902C157.844 20.2701 157.802 20.3757 157.805 20.4847C157.807 20.5938 157.853 20.6976 157.934 20.7743V20.7743L158.835 21.6635C158.918 21.7428 159.031 21.7874 159.148 21.7874C159.265 21.7874 159.377 21.7428 159.461 21.6635C159.682 21.4738 159.927 21.3119 160.191 21.1817C160.596 20.9883 161.043 20.8899 161.495 20.8947C161.968 20.8871 162.429 21.0419 162.794 21.3314C163.134 21.6027 163.317 22.0867 163.343 22.8644C163.334 22.9143 163.308 22.9598 163.268 22.9929C163.228 23.026 163.178 23.0447 163.125 23.0456V23.0456C162.787 23.0456 162.423 23.0456 162.043 23.0647C161.573 23.077 161.104 23.1146 160.639 23.1773C160.178 23.2369 159.724 23.3329 159.279 23.4643C158.861 23.5845 158.466 23.7692 158.109 24.0113C157.772 24.2443 157.496 24.549 157.301 24.9016C157.089 25.3099 156.986 25.7624 157.001 26.2184C156.992 26.6347 157.085 27.0473 157.272 27.4227C157.445 27.7617 157.694 28.0593 158.002 28.2939C158.321 28.5346 158.684 28.7145 159.073 28.824C160.044 29.0996 161.084 29.0504 162.022 28.6844C162.436 28.5225 162.802 28.2633 163.085 27.9303H163.113C163.143 27.9171 163.177 27.9128 163.209 27.918C163.242 27.9232 163.272 27.9377 163.296 27.9596C163.323 27.9878 163.34 28.0245 163.341 28.0631V28.3884C163.345 28.4944 163.39 28.5951 163.467 28.6705C163.545 28.7458 163.649 28.7902 163.759 28.7947H165.581C165.692 28.7907 165.797 28.7459 165.875 28.6695C165.953 28.5931 165.998 28.4909 166 28.3839V24.2128C166.006 23.3658 165.942 22.5197 165.809 21.6826C165.7 21.1563 165.465 20.6616 165.123 20.2374L165.127 20.2093ZM163.344 25.4148C163.351 25.6731 163.288 25.9286 163.161 26.1565C163.039 26.3656 162.868 26.5438 162.66 26.6765C162.445 26.8148 162.208 26.9204 161.959 26.9894C161.693 27.0656 161.417 27.1035 161.14 27.1019C160.814 27.1017 160.494 27.0186 160.213 26.8611C160.073 26.7915 159.957 26.6845 159.878 26.553C159.8 26.4214 159.762 26.2708 159.771 26.1194C159.763 25.9836 159.788 25.8479 159.843 25.7227C159.898 25.5975 159.982 25.486 160.089 25.3968C160.315 25.2168 160.577 25.0838 160.859 25.0062C161.167 24.92 161.485 24.8675 161.805 24.8498C162.139 24.8307 162.412 24.8217 162.624 24.8217H163.125C163.181 24.8251 163.233 24.8485 163.271 24.8873C163.31 24.9261 163.331 24.9774 163.332 25.031L163.344 25.4148Z" fill="white"/>
<path d="M189.118 20.2089C188.775 19.7999 188.322 19.4887 187.808 19.3088C187.137 19.085 186.429 18.9813 185.72 19.0028C184.96 19.0014 184.205 19.1235 183.487 19.3639C182.919 19.5508 182.387 19.8301 181.917 20.1898C181.841 20.2703 181.8 20.3759 181.803 20.4847C181.806 20.5934 181.852 20.6969 181.932 20.7737V20.7737L182.832 21.6626C182.915 21.7419 183.027 21.7865 183.144 21.7865C183.261 21.7865 183.374 21.7419 183.457 21.6626C183.679 21.4729 183.925 21.3111 184.19 21.181C184.594 20.9876 185.04 20.8893 185.491 20.8941C185.963 20.8872 186.423 21.0419 186.788 21.3307C187.128 21.6018 187.308 22.0856 187.335 22.8631C187.327 22.9137 187.3 22.9598 187.26 22.9931C187.22 23.0264 187.168 23.0445 187.115 23.0442V23.0442C186.78 23.0442 186.414 23.0442 186.038 23.0634C185.568 23.0756 185.1 23.1132 184.635 23.1759C184.175 23.2364 183.721 23.3324 183.277 23.4628C182.859 23.5829 182.464 23.7676 182.108 24.0096C181.771 24.2416 181.494 24.5464 181.301 24.8996C181.089 25.3077 180.986 25.7601 181.001 26.216C180.991 26.6322 181.084 27.0447 181.271 27.4199C181.443 27.76 181.694 28.0578 182.003 28.2907C182.322 28.5333 182.686 28.7144 183.076 28.8241C184.047 29.0996 185.086 29.0504 186.024 28.6845C186.438 28.5241 186.804 28.2647 187.086 27.9307H187.114C187.144 27.9175 187.177 27.9132 187.209 27.9185C187.241 27.9237 187.271 27.9381 187.294 27.96C187.308 27.9736 187.319 27.9897 187.327 28.0075C187.334 28.0252 187.338 28.0442 187.338 28.0635V28.3886C187.343 28.4946 187.389 28.5949 187.467 28.67C187.545 28.7451 187.649 28.7896 187.759 28.7948H189.577C189.688 28.7908 189.794 28.7462 189.872 28.6699C189.951 28.5937 189.996 28.4915 190 28.3841V24.211C190.006 23.3642 189.941 22.5183 189.804 21.6817C189.696 21.1559 189.462 20.6615 189.122 20.237L189.118 20.2089ZM187.341 25.4126C187.349 25.6707 187.287 25.9263 187.161 26.1541C187.039 26.3623 186.868 26.5403 186.662 26.6739C186.446 26.8123 186.21 26.9178 185.96 26.9867C185.695 27.0629 185.419 27.1008 185.142 27.0992C184.817 27.0991 184.498 27.0161 184.217 26.8584C184.077 26.7889 183.961 26.682 183.882 26.5504C183.804 26.4189 183.767 26.2684 183.775 26.117C183.768 25.9814 183.792 25.846 183.847 25.7209C183.902 25.5958 183.986 25.4843 184.092 25.3946C184.318 25.2147 184.58 25.0817 184.862 25.0042C185.17 24.918 185.487 24.8655 185.807 24.8478C186.132 24.8287 186.407 24.8197 186.625 24.8197H187.126C187.181 24.8231 187.233 24.8466 187.271 24.8854C187.309 24.9242 187.331 24.9755 187.331 25.029L187.341 25.4126Z" fill="white"/>
<path d="M155.874 20.2982C155.517 19.8818 155.074 19.5534 154.576 19.3373C154.036 19.1096 153.457 18.995 152.873 19.0002C152.224 18.9982 151.579 19.1123 150.968 19.3373C150.395 19.5501 149.868 19.8765 149.417 20.2982C148.976 20.7173 148.623 21.2248 148.379 21.7895C147.874 23.2182 147.874 24.7841 148.379 26.2128C148.621 26.7774 148.975 27.2842 149.417 27.7008C149.866 28.1254 150.393 28.4526 150.968 28.6627C151.579 28.89 152.224 29.0042 152.873 28.9999C153.583 28.9994 154.285 28.8415 154.93 28.5369C155.435 28.3076 155.892 27.981 156.277 27.5749C156.346 27.497 156.384 27.3954 156.384 27.29C156.384 27.1846 156.346 27.083 156.277 27.0051L155.055 26.0757L154.966 26.0105C154.887 25.9649 154.797 25.9469 154.707 25.959C154.618 25.9712 154.535 26.013 154.471 26.078C154.298 26.2736 154.103 26.4465 153.888 26.5927C153.549 26.8035 153.158 26.9089 152.762 26.8961C152.273 26.9085 151.798 26.7374 151.424 26.4151C151.014 25.9844 150.769 25.4168 150.733 24.8159C150.733 24.7669 150.75 24.7195 150.781 24.6821C150.811 24.6446 150.854 24.6196 150.901 24.6114H156.611C156.715 24.6051 156.814 24.5582 156.886 24.4801C156.958 24.402 156.999 24.2987 156.999 24.1911V23.7314C157.009 23.0715 156.912 22.4144 156.711 21.7872C156.536 21.239 156.257 20.7321 155.889 20.2959L155.874 20.2982ZM154.082 22.7009H150.938C150.886 22.7001 150.836 22.6791 150.798 22.642C150.761 22.6049 150.738 22.5544 150.735 22.5009C150.76 22.3492 150.804 22.2016 150.866 22.0614C150.956 21.8586 151.085 21.6769 151.246 21.5276C151.417 21.3649 151.615 21.2351 151.831 21.1444C152.084 21.0423 152.354 20.9926 152.626 20.9983C152.85 20.9902 153.072 21.0306 153.28 21.1167C153.488 21.2029 153.675 21.3329 153.83 21.4984C154.091 21.7674 154.25 22.1227 154.278 22.5009C154.275 22.5546 154.252 22.6051 154.213 22.6421C154.175 22.6792 154.125 22.7002 154.072 22.7009" fill="white"/>
<path d="M145.806 24.3667L145.744 24.2801C145.706 24.2152 145.685 24.1407 145.685 24.0649C145.685 23.989 145.706 23.9146 145.744 23.8496L148.938 19.8098C148.964 19.7802 148.98 19.7437 148.986 19.7048C148.991 19.6659 148.986 19.6262 148.969 19.5905C148.953 19.5548 148.927 19.5247 148.894 19.5038C148.861 19.4828 148.823 19.472 148.785 19.4726H146.273C146.145 19.4722 146.018 19.5019 145.903 19.5594C145.788 19.6169 145.687 19.7007 145.609 19.8042L145.472 19.9818L143.019 23.1853L142.987 23.2235L142.967 23.2426H142.951C142.923 23.2563 142.892 23.2609 142.861 23.2559C142.831 23.2508 142.802 23.2364 142.78 23.2145C142.76 23.1928 142.747 23.166 142.74 23.137V15.399C142.735 15.2962 142.693 15.199 142.621 15.1256C142.55 15.0521 142.455 15.0075 142.354 15H140.386C140.284 15.0082 140.188 15.0541 140.117 15.129C140.046 15.204 140.004 15.3029 140 15.4069V28.5965C140.005 28.7016 140.048 28.8013 140.121 28.8759C140.194 28.9505 140.292 28.9948 140.395 29H142.339C142.441 28.9954 142.539 28.9523 142.612 28.8789C142.685 28.8056 142.728 28.7073 142.734 28.6032V24.8691C142.74 24.84 142.753 24.8131 142.774 24.7916C142.796 24.7697 142.824 24.7553 142.855 24.7502C142.885 24.7452 142.916 24.7498 142.944 24.7635H142.961C142.969 24.7673 142.976 24.7741 142.981 24.7826V24.7826V24.7938L143.029 24.8523L145.414 28.4919L145.551 28.6695C145.628 28.7706 145.726 28.8526 145.839 28.9096C145.952 28.9667 146.075 28.9972 146.201 28.9989H148.857C148.886 28.9944 148.913 28.981 148.935 28.9607C148.967 28.9306 148.988 28.8911 148.996 28.8479C149.004 28.8047 148.999 28.7599 148.98 28.7201L145.806 24.3667Z" fill="white"/>
<path d="M180.947 19.6283C180.979 19.5438 180.995 19.4547 180.994 19.3649C180.996 19.3491 180.996 19.3332 180.994 19.3173C180.976 19.2311 180.928 19.1532 180.858 19.0958C180.788 19.0384 180.7 19.0047 180.607 19H179.044C178.853 18.9997 178.668 19.0617 178.519 19.1758C178.37 19.2899 178.267 19.4492 178.226 19.6272V19.6272L178.176 19.806L176.858 24.4228C176.825 24.4581 176.779 24.4798 176.729 24.4831C176.698 24.481 176.669 24.4714 176.643 24.4553C176.617 24.4392 176.596 24.4171 176.582 24.3911L176.565 24.3171L175.249 19.6537L175.228 19.5701C175.173 19.4086 175.067 19.2678 174.923 19.1678C174.779 19.0678 174.606 19.0139 174.428 19.0138H172.73C172.54 19.013 172.355 19.074 172.207 19.1867C172.058 19.2993 171.954 19.457 171.912 19.6336V19.6336V19.6759L171.876 19.8165L170.675 24.4144C170.665 24.4322 170.651 24.4478 170.634 24.4603C170.617 24.4729 170.598 24.482 170.577 24.4872C170.556 24.4925 170.535 24.4937 170.513 24.4908C170.492 24.4879 170.472 24.481 170.454 24.4704C170.43 24.4565 170.41 24.4373 170.396 24.4144L168.972 19.8123L168.904 19.6008C168.906 19.5871 168.906 19.5732 168.904 19.5595C168.847 19.4019 168.739 19.2651 168.597 19.1682C168.455 19.0713 168.284 19.0192 168.11 19.019H166.388C166.296 19.0239 166.208 19.0577 166.138 19.115C166.068 19.1724 166.02 19.2502 166.001 19.3364V19.3364C166 19.3529 166 19.3695 166.001 19.3861C166.001 19.4758 166.017 19.5648 166.049 19.6494L168.88 27.4553C168.89 27.4853 168.902 27.5143 168.918 27.542C168.98 27.6682 169.076 27.7764 169.196 27.8557C169.316 27.9351 169.455 27.9827 169.601 27.9937H171.264C171.432 27.9814 171.592 27.9214 171.723 27.8215C171.854 27.7215 171.951 27.5862 172.001 27.4331V27.4331L172.07 27.2067L173.375 22.7305C173.39 22.7112 173.409 22.6953 173.432 22.684C173.454 22.6726 173.479 22.6661 173.504 22.6649C173.529 22.6667 173.554 22.6737 173.576 22.6854C173.599 22.6971 173.618 22.7132 173.633 22.7326L175.13 27.2945C175.158 27.381 175.192 27.4654 175.232 27.5473C175.294 27.6736 175.39 27.782 175.51 27.8615C175.63 27.941 175.77 27.9888 175.915 28H177.533C177.678 27.9894 177.818 27.9418 177.938 27.8622C178.058 27.7826 178.153 27.6739 178.214 27.5473C178.233 27.5135 178.29 27.3622 178.325 27.2607L180.986 19.7118C180.986 19.6951 180.991 19.6788 181 19.6642" fill="white"/>
<path d="M199.989 19.3321C199.98 19.3086 199.973 19.2845 199.967 19.26C199.935 19.1887 199.883 19.1274 199.818 19.0824C199.753 19.0375 199.677 19.0105 199.597 19.0045H197.879C197.718 19.0099 197.562 19.0592 197.429 19.1469C197.295 19.2346 197.189 19.3572 197.122 19.5009V19.5009C197.11 19.5257 197.101 19.5516 197.092 19.5775L197.081 19.6214C197.073 19.6443 197.066 19.6676 197.06 19.6912L197.01 19.8521L195.448 24.8703L195.426 24.9311C195.415 24.9756 195.388 25.0148 195.351 25.0421C195.313 25.0694 195.267 25.0831 195.22 25.0808C195.177 25.0821 195.135 25.0702 195.1 25.0468C195.064 25.0234 195.037 24.9896 195.022 24.9503L193.164 19.8499L193.142 19.7846L193.017 19.4401C192.945 19.31 192.838 19.201 192.709 19.1237C192.58 19.0465 192.433 19.0039 192.282 19H190.344C190.276 19.0126 190.212 19.0411 190.157 19.083C190.102 19.1249 190.059 19.179 190.03 19.2409C190.02 19.2625 190.012 19.2852 190.007 19.3084V19.3084C189.994 19.3813 189.999 19.4562 190.022 19.5268L193.717 28.3745C193.774 28.5601 193.763 28.7592 193.685 28.9374V28.9644L193.618 29.131C193.519 29.3708 193.424 29.5925 193.336 29.7805C193.255 29.9582 193.144 30.1211 193.007 30.2623C192.865 30.3976 192.693 30.4989 192.504 30.5583C192.253 30.6337 191.992 30.6687 191.73 30.6619H190.505C190.395 30.6648 190.29 30.7092 190.213 30.7859C190.135 30.8626 190.091 30.9657 190.088 31.0739V32.5857C190.091 32.694 190.136 32.7972 190.214 32.8738C190.292 32.9505 190.397 32.9948 190.508 32.9977H192.148C192.702 33.0136 193.255 32.948 193.789 32.8029C194.173 32.6906 194.526 32.4939 194.82 32.2277C195.1 31.9594 195.327 31.6426 195.489 31.2934C195.666 30.9182 195.848 30.4912 196.036 30.0124L199.991 19.5054C200.003 19.4505 200.003 19.3938 199.991 19.3388" fill="white"/>
<path d="M198.996 27.0004C198.863 26.9965 198.732 27.0214 198.61 27.0735C198.488 27.1256 198.379 27.2036 198.29 27.302C198.104 27.4892 197.999 27.7427 198 28.0067C198.001 28.2708 198.106 28.5238 198.293 28.71C198.48 28.8963 198.733 29.0006 198.997 29C199.261 28.9994 199.514 28.8939 199.7 28.7067L199.723 28.6847C199.901 28.4985 200 28.2509 200 27.9934C200 27.7358 199.901 27.4882 199.723 27.302C199.634 27.204 199.525 27.1264 199.403 27.0743C199.281 27.0223 199.149 26.9971 199.017 27.0004" fill="white"/>
<path d="M216.717 20.2886C216.309 19.8738 215.825 19.5502 215.293 19.3376C214.131 18.8875 212.853 18.8875 211.691 19.3376C211.159 19.5495 210.675 19.8732 210.268 20.2886C209.87 20.7021 209.555 21.1946 209.342 21.7371C209.111 22.3011 209 23.4134 209 24.106C208.992 24.8359 209.108 25.5616 209.342 26.2494C209.555 26.7994 209.874 27.2977 210.28 27.7129C210.686 28.1281 211.17 28.4514 211.702 28.6624C212.864 29.1125 214.142 29.1125 215.304 28.6624C215.838 28.4481 216.324 28.1222 216.732 27.7046C217.129 27.2905 217.444 26.7987 217.658 26.2573C217.891 25.5692 218.007 24.8438 218 24.1139C218 23.4235 217.884 22.309 217.658 21.745C217.444 21.2032 217.129 20.711 216.732 20.2965L216.717 20.2886ZM216.277 25.647C216.146 26.0319 215.94 26.3845 215.673 26.6826C215.405 26.9778 215.083 27.214 214.726 27.3775C213.936 27.7114 213.051 27.7114 212.261 27.3775C211.905 27.2126 211.583 26.9765 211.315 26.6826C211.049 26.3831 210.845 26.0309 210.713 25.647C210.568 25.1445 210.495 24.622 210.497 24.097C210.495 23.4978 210.567 22.9009 210.713 22.3214C210.842 21.9382 211.046 21.5871 211.312 21.2904C211.578 20.9937 211.9 20.7578 212.258 20.5977C213.047 20.257 213.934 20.257 214.723 20.5977C215.08 20.7592 215.402 20.9948 215.669 21.2903C215.937 21.5883 216.143 21.9409 216.274 22.3259C216.414 22.9063 216.483 23.5029 216.479 24.1015C216.484 24.6259 216.414 25.1481 216.274 25.6515" fill="white"/>
<path d="M203.404 21.3181C203.664 21.0127 203.993 20.7706 204.367 20.6113C204.79 20.4411 205.245 20.3589 205.703 20.37C206.132 20.3621 206.557 20.4444 206.95 20.6113C207.242 20.7483 207.507 20.932 207.736 21.1546C207.814 21.2216 207.914 21.2595 208.019 21.2615C208.124 21.2636 208.226 21.2297 208.307 21.1659L208.858 20.6834C208.94 20.6106 208.991 20.5102 208.999 20.4028C209.007 20.2953 208.973 20.1888 208.902 20.1051C208.528 19.7748 208.093 19.5148 207.62 19.3385C207.009 19.1109 206.36 18.9961 205.705 19.0003C205.051 18.9927 204.401 19.1115 203.795 19.3498C203.233 19.5685 202.723 19.897 202.298 20.3148C201.88 20.7358 201.554 21.2343 201.339 21.7803C200.887 23.2312 200.887 24.7788 201.339 26.2297C201.552 26.7748 201.876 27.2731 202.291 27.6952C202.707 28.1178 203.214 28.4472 203.775 28.6601C205 29.1133 206.355 29.1133 207.579 28.6601C208.052 28.4809 208.484 28.2127 208.849 27.871C208.918 27.791 208.953 27.6892 208.949 27.5851C208.945 27.481 208.902 27.3821 208.827 27.3074L208.36 26.8655C208.279 26.7936 208.172 26.7537 208.062 26.7537C207.952 26.7537 207.845 26.7936 207.764 26.8655C207.498 27.1288 207.179 27.3351 206.826 27.4711C206.473 27.607 206.094 27.6696 205.715 27.6546C205.28 27.6595 204.849 27.5729 204.452 27.401C204.083 27.2343 203.755 26.9925 203.491 26.6919C203.221 26.3829 203.011 26.0298 202.87 25.6491C202.718 25.1145 202.643 24.5622 202.648 24.0078C202.645 23.4548 202.71 22.9034 202.842 22.3653C202.959 21.9841 203.151 21.628 203.406 21.3158" fill="white"/>
<path d="M231.844 21.2056C231.746 20.771 231.557 20.3645 231.289 20.0158C231.017 19.6831 230.667 19.4281 230.274 19.2749C229.776 19.0865 229.249 18.998 228.72 19.0141C228.146 18.9885 227.578 19.146 227.093 19.4653C226.737 19.7273 226.427 20.0513 226.177 20.4232V20.4232L226.134 20.4878L226.113 20.5201C226.099 20.5362 226.082 20.5489 226.063 20.5573C226.043 20.5657 226.023 20.5695 226.002 20.5686C225.975 20.5687 225.948 20.561 225.924 20.5464C225.901 20.5317 225.882 20.5107 225.869 20.4855C225.869 20.4682 225.842 20.4405 225.83 20.4139C225.788 20.3412 225.744 20.2674 225.7 20.1831C225.569 19.9689 225.404 19.7799 225.211 19.6246C224.972 19.4365 224.707 19.2875 224.425 19.1826C223.719 18.9524 222.965 18.9396 222.253 19.1456C221.96 19.2331 221.68 19.3629 221.422 19.5311C221.184 19.6798 220.969 19.8636 220.782 20.0769C220.721 20.1485 220.671 20.22 220.614 20.2939L220.597 20.3135C220.592 20.3251 220.585 20.3354 220.576 20.3435V20.3435C220.557 20.3636 220.533 20.3779 220.507 20.385C220.481 20.392 220.454 20.3916 220.428 20.3836C220.402 20.3757 220.378 20.3605 220.36 20.3399C220.342 20.3192 220.329 20.2937 220.324 20.2662V19.6419C220.321 19.5321 220.277 19.4278 220.202 19.3504C220.127 19.2729 220.027 19.2282 219.921 19.2253H219.401C219.293 19.2291 219.192 19.276 219.117 19.356C219.043 19.4361 219.001 19.543 219 19.6546V28.5684C219.002 28.6801 219.045 28.7868 219.12 28.8664C219.196 28.9459 219.298 28.9921 219.405 28.9954H220.03C220.139 28.9915 220.243 28.9438 220.319 28.8622C220.395 28.7807 220.438 28.6717 220.438 28.558V23.8426C220.434 23.3695 220.487 22.8977 220.595 22.4381C220.686 22.0456 220.847 21.6745 221.07 21.3441C221.285 21.0359 221.572 20.7897 221.904 20.6286C222.286 20.4543 222.701 20.37 223.117 20.3816C223.709 20.3816 224.134 20.5897 224.393 21.006C224.651 21.4222 224.78 22.13 224.78 23.1294V28.5615C224.781 28.6744 224.824 28.7825 224.9 28.863C224.977 28.9434 225.08 28.9901 225.188 28.9931H225.814C225.924 28.9892 226.027 28.9415 226.103 28.8599C226.179 28.7784 226.222 28.6694 226.223 28.5557V23.0405C226.217 22.6711 226.277 22.3038 226.399 21.9569C226.503 21.6485 226.664 21.3642 226.873 21.1202C227.073 20.8919 227.315 20.7085 227.586 20.5813C227.859 20.4526 228.155 20.3868 228.455 20.3885C228.811 20.3746 229.166 20.4473 229.49 20.6009C229.746 20.7289 229.967 20.9199 230.136 21.1571C230.297 21.394 230.411 21.6626 230.469 21.9465C230.529 22.2429 230.559 22.5449 230.559 22.8478V28.5753C230.562 28.687 230.606 28.7934 230.682 28.8724C230.758 28.9514 230.86 28.9971 230.967 29H231.591C231.7 28.997 231.804 28.9497 231.881 28.8682C231.957 28.7867 231.999 28.6775 231.999 28.5638V22.7716C232.006 22.2439 231.952 21.7173 231.836 21.2033" fill="white"/>
<path d="M43.718 16H40.2648C39.145 16 39.145 16 38.9121 17.3038C38.6792 18.6076 38.6781 18.6554 39.7055 18.6554H41.758L40.5913 25.3166C40.3116 26.8073 39.6587 27.8318 37.653 28.4381C37.1393 28.5771 37 28.764 37 28.9965C37 29.2768 37.0925 29.5093 37.3265 30.0678C37.653 30.8598 37.8402 31 38.1198 31C38.3995 31 38.9132 30.8598 39.0993 30.8142C41.9462 29.882 43.1129 27.6927 43.5787 25.0841L44.8846 17.5874C45.1175 16 45.1175 16 43.718 16Z" fill="white"/>
<path d="M55.5355 16.0033C54.0739 16.0033 54.0739 16.0033 53.8784 17.1885L52.8066 23.3576C52.5145 25.1602 52.027 26.2037 50.2244 26.2037C48.4696 26.2037 47.8377 25.1602 48.1286 23.5479L49.1504 17.6632C49.4436 16.0033 49.3947 16.0033 47.8843 16.0033C46.4215 16.0033 46.3727 16.0033 46.1794 17.142L45.1077 23.3067C44.4735 26.8178 46.7148 29 49.8812 29C53.4386 29 55.2411 27.4342 55.8264 23.7338L56.8982 17.6123C57.1414 16 57.0437 16 55.5343 16" fill="white"/>
<path d="M62.1271 26.1898C63.2416 26.1433 63.8442 25.6216 63.8442 25.0998C63.8442 24.4366 63.0555 24.2 61.9886 23.8673C59.9003 23.204 57.9982 22.4457 57.9982 20.1707C57.9982 17.4691 60.1795 16 62.9159 16C64.0758 16 65.3753 16.0475 66.2106 16.1415C66.9528 16.2366 67.1378 16.4731 66.9063 17.6581C66.6747 18.8431 66.3956 18.9382 65.7464 18.8907C64.9576 18.8431 63.9373 18.7492 62.7309 18.7492C61.3394 18.7492 60.9218 19.2698 60.9218 19.7441C60.9218 20.3598 61.4779 20.6925 62.7774 21.0706C65.1892 21.7813 66.7667 22.7762 66.7667 24.9097C66.7667 27.4212 64.9576 28.8892 62.0351 28.9854C60.6392 29.0356 59.2416 28.9564 57.8597 28.7488C56.9313 28.6062 56.8859 28.6062 57.1174 27.2322C57.349 25.9996 57.349 25.9057 58.2308 25.9996C59.9469 26.1887 61.0137 26.2362 62.126 26.1887" fill="white"/>
<path d="M78.0147 16H69.5731C68.3743 16 68.3743 16 68.125 17.3858C67.8757 18.7717 67.9246 18.7717 68.9743 18.7717H71.7213L70.173 27.3276C69.8725 29 69.9226 29 71.4708 29C72.9201 29 72.9702 29 73.1694 27.8048L74.7678 18.7739H77.417C78.6158 18.7739 78.6158 18.7739 78.8651 17.3881C79.1144 16.0022 79.1144 16 78.0147 16Z" fill="white"/>
<path d="M92.4475 18.7826C93.623 18.7826 93.623 18.7826 93.8675 17.3907C94.1119 15.9989 94.113 16 93.0347 16H87.1084C85.0019 16 85.0522 16 84.7095 18.0621L83.1902 26.7455C82.7984 29 82.8475 29 84.9539 29H90.7329C91.9575 29 91.9084 29 92.154 27.6574C92.3984 26.2655 92.3984 26.2655 91.3212 26.2655H86.3247L86.7165 23.7693H90.8803C92.0066 23.7693 92.0066 23.7693 92.202 22.4737C92.3984 21.1311 92.3984 21.1311 90.8803 21.1311H87.2032L87.595 18.7815L92.4475 18.7826Z" fill="white"/>
<path d="M98.7749 23.3625L100.725 19.2503C100.876 18.9158 100.876 18.9158 101.126 18.9158C101.375 18.9158 101.376 18.9158 101.427 19.2982L102.026 23.3625H98.7749ZM104.077 17.6246C103.777 16 103.777 16 101.376 16C99.1249 16 99.1751 16 98.4751 17.338L93.4227 27.4222C92.6726 28.8573 92.8231 29 94.6733 29C96.1245 29 96.1245 29 96.7241 27.7099L97.5244 25.9883H102.424L102.675 27.7099C102.874 29 102.924 29 104.375 29C106.025 29 106.176 28.9052 105.876 27.3275L104.077 17.6246Z" fill="white"/>
<path d="M115.031 16H106.569C105.374 16 105.374 16 105.125 17.3858C104.875 18.7717 104.926 18.7717 105.971 18.7717H108.708L107.169 27.3276C106.871 29 106.921 29 108.463 29C109.906 29 109.956 29 110.156 27.8048L111.749 18.7739H114.386C115.581 18.7739 115.581 18.7739 115.83 17.3881C116.129 16.0022 116.129 16.0022 115.034 16.0022" fill="white"/>
<path d="M30.9312 18.5823C30.8526 18.3755 29.7638 16.3459 27.7434 13.7997C27.6919 13.7382 27.6596 13.6627 27.6503 13.5827V13.5827C27.5283 12.0994 27.3249 10.6241 27.0411 9.16348C27.009 9.01693 26.9322 8.88422 26.8215 8.78395C26.7109 8.68369 26.572 8.62089 26.4242 8.60437V8.60437L24.3196 8.34829C24.3012 8.34663 24.2827 8.34663 24.2642 8.34829C24.1467 8.34829 24.034 8.39542 23.951 8.4793C23.8679 8.56318 23.8212 8.67695 23.8212 8.79558V9.53138C23.8212 9.5385 23.8184 9.54532 23.8134 9.55036C23.8084 9.55539 23.8016 9.55822 23.7946 9.55822C23.7881 9.55836 23.7817 9.55596 23.7769 9.55151C22.4648 8.3474 21.0479 7.26505 19.5434 6.31758V6.31758C19.2357 6.10962 18.8736 5.99904 18.5033 6.00001V6.00001C18.1331 5.99904 17.7709 6.10962 17.4632 6.31758C10.2125 10.8408 6.22274 18.1798 6.06877 18.5823C6.02351 18.6791 6.00003 18.7847 6 18.8917C5.99997 18.9987 6.02341 19.1043 6.06863 19.2011C6.11384 19.2978 6.17971 19.3832 6.26152 19.4512C6.34332 19.5192 6.43901 19.5681 6.54174 19.5943L8.62967 20.0003C8.7677 20.0385 8.89119 20.1177 8.9842 20.2275C9.0772 20.3373 9.13544 20.4728 9.15138 20.6164C9.16799 20.9888 9.56343 29.3006 10.0586 31.4565C10.0993 31.6114 10.1896 31.7483 10.3154 31.8459C10.4412 31.9436 10.5955 31.9966 10.7542 31.9966H10.7697C11.9881 31.9653 13.1035 31.9452 14.3142 31.9284H14.4139C14.4759 31.9278 14.5351 31.9026 14.5789 31.8583C14.6226 31.8139 14.6473 31.754 14.6476 31.6914V31.6858C14.5977 30.96 14.4925 29.3006 14.4072 27.5483C14.4072 27.5047 14.4017 27.4499 14.3995 27.4052C14.3938 27.3335 14.3711 27.2643 14.3333 27.2034C14.2955 27.1425 14.2437 27.0916 14.1824 27.0552C13.8643 26.8637 13.5979 26.5959 13.4068 26.2756C13.2157 25.9554 13.1058 25.5924 13.0869 25.219C12.9761 22.3049 12.9218 18.9357 13.0791 16.3C13.0813 16.1876 13.1277 16.0807 13.208 16.0028C13.2882 15.9249 13.3959 15.8824 13.5072 15.8846C13.6186 15.8868 13.7245 15.9336 13.8016 16.0147C13.8788 16.0957 13.9209 16.2044 13.9187 16.3168V16.3504C13.8157 18.1071 13.808 20.1848 13.8434 22.2345C13.8446 22.3006 13.8586 22.3658 13.8847 22.4264C13.9109 22.487 13.9486 22.5418 13.9957 22.5877C14.0428 22.6336 14.0984 22.6697 14.1593 22.6939C14.2202 22.7181 14.2853 22.7299 14.3507 22.7287C14.4162 22.7276 14.4808 22.7134 14.5408 22.687C14.6008 22.6606 14.6551 22.6226 14.7006 22.575C14.746 22.5275 14.7818 22.4713 14.8058 22.4098C14.8297 22.3483 14.8415 22.2827 14.8403 22.2166C14.8026 20.1535 14.8137 18.0624 14.9189 16.3C14.92 16.2444 14.932 16.1895 14.9541 16.1385C14.9762 16.0875 15.008 16.0414 15.0478 16.0028C15.0875 15.9642 15.1344 15.9339 15.1858 15.9137C15.2371 15.8934 15.2919 15.8835 15.3471 15.8846C15.4022 15.8857 15.4566 15.8978 15.5071 15.9201C15.5576 15.9424 15.6033 15.9745 15.6415 16.0147C15.6797 16.0548 15.7097 16.1021 15.7298 16.154C15.7499 16.2058 15.7596 16.2612 15.7586 16.3168C15.7586 16.328 15.7586 16.3392 15.7586 16.3504C15.6566 18.0981 15.6478 20.1635 15.6832 22.2021C15.6853 22.3355 15.7398 22.4627 15.8347 22.5556C15.9296 22.6485 16.0572 22.6995 16.1894 22.6974C16.3216 22.6954 16.4476 22.6404 16.5396 22.5445C16.6316 22.4487 16.6822 22.3199 16.6801 22.1864V22.1864C16.6425 20.1322 16.6535 18.0489 16.7588 16.2989C16.7599 16.2433 16.7718 16.1884 16.7939 16.1374C16.816 16.0864 16.8478 16.0403 16.8876 16.0017C16.9273 15.9631 16.9742 15.9328 17.0256 15.9125C17.0769 15.8923 17.1317 15.8824 17.1869 15.8835C17.242 15.8846 17.2964 15.8966 17.3469 15.919C17.3974 15.9413 17.4431 15.9734 17.4813 16.0136C17.5195 16.0537 17.5495 16.101 17.5696 16.1529C17.5897 16.2047 17.5995 16.26 17.5984 16.3157C17.5984 16.3269 17.5984 16.3381 17.5984 16.3492C17.4488 18.9122 17.4976 22.1551 17.5984 25.001C17.5984 25.001 17.5984 25.0256 17.5984 25.0278C17.5984 25.0301 17.5984 25.0569 17.5984 25.0714V25.0994C17.5987 25.4686 17.5099 25.8323 17.3397 26.159C17.1694 26.4858 16.9229 26.7657 16.6214 26.9747C16.5679 27.0121 16.5234 27.0611 16.4912 27.1182C16.459 27.1753 16.4399 27.239 16.4353 27.3045C16.4353 27.3045 16.3844 27.7418 16.5749 29.8586C16.6646 30.7834 16.7322 31.4241 16.7643 31.7137C16.7713 31.7679 16.7977 31.8176 16.8385 31.8534C16.8794 31.8892 16.9317 31.9088 16.9858 31.9083H17.1797C17.5818 31.9083 17.9971 31.9083 18.428 31.9083H18.5897H20.1537L21.3378 31.9184C21.3922 31.9188 21.4449 31.8989 21.4858 31.8626C21.5266 31.8263 21.5528 31.7761 21.5593 31.7216C21.834 29.1843 21.8983 27.7585 21.8983 27.7585C21.8968 27.6977 21.8735 27.6396 21.8328 27.5947C21.7921 27.5499 21.7366 27.5215 21.6768 27.5148L20.2368 27.3146C20.1411 27.3028 20.051 27.2627 19.9777 27.1995C19.9044 27.1362 19.8512 27.0526 19.8248 26.959C19.8067 26.886 19.8007 26.8104 19.807 26.7354C20.3819 18.2737 23.1433 15.4256 23.1433 15.4256C23.1842 15.384 23.2291 15.3465 23.2773 15.3138C23.3321 15.2737 23.3952 15.2469 23.4619 15.2353C23.5285 15.2237 23.5969 15.2276 23.6618 15.2468C23.7267 15.266 23.7864 15.3 23.8363 15.3461C23.8862 15.3922 23.925 15.4492 23.9497 15.5128C23.9694 15.579 23.9812 15.6473 23.9851 15.7163C24.2233 18.3744 24.107 22.8987 23.9596 26.4279C23.8345 29.4236 23.6827 31.7752 23.6827 31.7752C23.6827 31.8215 23.7009 31.8659 23.7333 31.8986C23.7657 31.9313 23.8097 31.9497 23.8555 31.9497V31.9497C24.6397 31.9631 25.4062 31.9788 26.2303 32H26.2458C26.4045 32 26.5588 31.947 26.6846 31.8493C26.8104 31.7516 26.9007 31.6147 26.9414 31.4599V31.4599C27.4366 29.3039 27.8276 20.9921 27.8486 20.6198C27.8643 20.4761 27.9224 20.3404 28.0155 20.2305C28.1085 20.1207 28.2322 20.0416 28.3703 20.0036L30.4583 19.5977C30.561 19.5715 30.6567 19.5226 30.7385 19.4546C30.8203 19.3866 30.8862 19.3012 30.9314 19.2044C30.9766 19.1077 31 19.002 31 18.895C31 18.7881 30.9765 18.6824 30.9312 18.5857V18.5823Z" fill="white"/>
</svg>
