<svg width="32" height="32" viewBox="0 0 32 32" fill="none" xmlns="http://www.w3.org/2000/svg">
<path fill-rule="evenodd" clip-rule="evenodd" d="M11.7152 21.7687L17.5005 15.9996L11.7152 10.2304C11.4595 9.97592 11.3334 9.6402 11.3334 9.30447C11.3334 8.97051 11.4595 8.63479 11.7152 8.38034C12.2266 7.87322 13.0612 7.87322 13.5708 8.38034L20.2831 15.0737C20.5389 15.3299 20.6667 15.6638 20.6667 15.9996C20.6667 16.3353 20.5389 16.671 20.2831 16.9237L13.5708 23.617C13.0612 24.1277 12.2266 24.1277 11.7152 23.617C11.4595 23.3643 11.3334 23.0286 11.3334 22.6929C11.3334 22.3589 11.4595 22.0232 11.7152 21.7687Z" fill="#1574F5"/>
</svg>
