<svg width="250" height="285" viewBox="0 0 250 285" fill="none" xmlns="http://www.w3.org/2000/svg">
<path d="M20.8945 35.5636C20.8945 35.5636 21.5958 42.2018 21.8794 44.2466C21.9856 45.0132 21.8794 45.1697 21.8794 48.1534C21.8794 51.1371 24.26 53.3352 24.26 55.7019C24.26 58.0686 23.5736 59.8123 23.6415 60.7432" stroke="#FFC300" stroke-width="0.675" stroke-linecap="round" stroke-linejoin="round"/>
<path d="M10.9738 11.2438C16.9843 5.23331 26.7744 5.2786 32.7849 11.2891V11.2891C38.8456 17.3497 38.8912 27.2218 32.8305 33.2824L22.0386 44.0744L10.9738 33.0095C4.96334 26.9991 4.96335 17.2542 10.9738 11.2438V11.2438Z" fill="url(#paint0_linear_2_337)"/>
<path fill-rule="evenodd" clip-rule="evenodd" d="M25.0769 45.6162C25.7373 44.9558 25.7423 43.8799 25.0818 43.2194C24.4213 42.5589 23.3505 42.5589 22.69 43.2194L22.0099 43.8995L21.3399 43.2294C20.6739 42.5634 19.589 42.5684 18.923 43.2344C18.2625 43.8949 18.2576 44.9708 18.9181 45.6313C19.5785 46.2918 20.6494 46.2918 21.3099 45.6313L21.9899 44.9512L22.66 45.6213C23.326 46.2873 24.4108 46.2823 25.0769 45.6162Z" fill="url(#paint1_linear_2_337)"/>
<path d="M96.259 126.802C96.259 126.802 98.3151 146.427 99.1464 152.472C99.458 154.738 99.1464 155.201 99.1464 164.021C99.1464 172.842 106.126 179.34 106.126 186.337C106.126 193.334 104.113 198.489 104.313 201.241" stroke="#5374FC" stroke-width="2" stroke-linecap="round" stroke-linejoin="round"/>
<path d="M67.1733 55.1734C84.9422 37.4045 113.751 37.4045 131.52 55.1734V55.1734C149.289 72.9422 149.289 101.751 131.52 119.52L99.3467 151.693L67.1733 119.52C49.4045 101.751 49.4045 72.9422 67.1733 55.1734V55.1734Z" fill="url(#paint2_linear_2_337)"/>
<path fill-rule="evenodd" clip-rule="evenodd" d="M90.4645 149.464C88.5118 151.417 88.5118 154.583 90.4645 156.536C92.4171 158.488 95.5829 158.488 97.5355 156.536L99.5 154.571L101.464 156.536C103.417 158.488 106.583 158.488 108.536 156.536C110.488 154.583 110.488 151.417 108.536 149.464C106.583 147.512 103.417 147.512 101.464 149.464L99.5 151.429L97.5355 149.464C95.5829 147.512 92.4171 147.512 90.4645 149.464Z" fill="url(#paint3_linear_2_337)"/>
<path d="M42.0403 215.712C42.0403 215.712 43.2835 227.531 43.7861 231.172C43.9745 232.537 43.7861 232.815 43.7861 238.127C43.7861 243.44 48.0064 247.353 48.0064 251.567C48.0064 255.781 46.7895 258.885 46.9098 260.543" stroke="#FFC300" stroke-width="1.2" stroke-linecap="round" stroke-linejoin="round"/>
<path d="M24.4535 172.497C35.1548 161.796 52.5435 161.834 63.2447 172.535V172.535C73.9887 183.279 74.0275 200.737 63.2835 211.481L43.9845 230.78L24.4535 211.249C13.7523 200.548 13.7523 183.198 24.4535 172.497V172.497Z" fill="url(#paint4_linear_2_337)"/>
<path fill-rule="evenodd" clip-rule="evenodd" d="M49.459 233.615C50.635 232.439 50.6392 230.528 49.4633 229.352C48.2873 228.176 46.3807 228.176 45.2048 229.352L44.0084 230.548L42.8206 229.361C41.64 228.18 39.7215 228.184 38.5408 229.365C37.3649 230.541 37.3606 232.452 38.5366 233.628C39.7126 234.804 41.6192 234.804 42.7951 233.628L43.9914 232.431L45.1793 233.619C46.3599 234.8 48.2784 234.796 49.459 233.615Z" fill="url(#paint5_linear_2_337)"/>
<path d="M182.259 208.802C182.259 208.802 184.315 228.427 185.146 234.472C185.458 236.738 185.146 237.201 185.146 246.021C185.146 254.842 192.126 261.34 192.126 268.337C192.126 275.334 190.113 280.489 190.313 283.241" stroke="#EC610A" stroke-width="2" stroke-linecap="round" stroke-linejoin="round"/>
<path d="M153.173 137.173C170.942 119.405 199.751 119.405 217.52 137.173V137.173C235.289 154.942 235.289 183.751 217.52 201.52L185.347 233.693L153.173 201.52C135.404 183.751 135.404 154.942 153.173 137.173V137.173Z" fill="url(#paint6_linear_2_337)"/>
<path fill-rule="evenodd" clip-rule="evenodd" d="M176.464 231.464C174.512 233.417 174.512 236.583 176.464 238.536C178.417 240.488 181.583 240.488 183.536 238.536L185.5 236.571L187.464 238.536C189.417 240.488 192.583 240.488 194.536 238.536C196.488 236.583 196.488 233.417 194.536 231.464C192.583 229.512 189.417 229.512 187.464 231.464L185.5 233.429L183.536 231.464C181.583 229.512 178.417 229.512 176.464 231.464Z" fill="url(#paint7_linear_2_337)"/>
<defs>
<linearGradient id="paint0_linear_2_337" x1="21.8567" y1="0.36087" x2="0.0909095" y2="22.1267" gradientUnits="userSpaceOnUse">
<stop stop-color="#4F00BC"/>
<stop offset="1" stop-color="#29ABE2"/>
</linearGradient>
<linearGradient id="paint1_linear_2_337" x1="19.2337" y1="34.68" x2="16.9178" y2="45.428" gradientUnits="userSpaceOnUse">
<stop stop-color="#4F00BC"/>
<stop offset="1" stop-color="#29ABE2"/>
</linearGradient>
<linearGradient id="paint2_linear_2_337" x1="99.3467" y1="23" x2="35" y2="87.3467" gradientUnits="userSpaceOnUse">
<stop stop-color="#FF8126"/>
<stop offset="1" stop-color="#FF117E"/>
</linearGradient>
<linearGradient id="paint3_linear_2_337" x1="89" y1="148" x2="89" y2="158" gradientUnits="userSpaceOnUse">
<stop stop-color="#FF8126"/>
<stop offset="1" stop-color="#FF117E"/>
</linearGradient>
<linearGradient id="paint4_linear_2_337" x1="4.99987" y1="153.043" x2="4.84517" y2="230.702" gradientUnits="userSpaceOnUse">
<stop stop-color="#EFBFD5"/>
<stop offset="1" stop-color="#9D61FD"/>
</linearGradient>
<linearGradient id="paint5_linear_2_337" x1="31.3135" y1="231.49" x2="36.0014" y2="241.337" gradientUnits="userSpaceOnUse">
<stop stop-color="#EFBFD5"/>
<stop offset="1" stop-color="#9D61FD"/>
</linearGradient>
<linearGradient id="paint6_linear_2_337" x1="121" y1="105" x2="121" y2="233.693" gradientUnits="userSpaceOnUse">
<stop stop-color="#23BCBA"/>
<stop offset="1" stop-color="#45E994"/>
</linearGradient>
<linearGradient id="paint7_linear_2_337" x1="164.5" y1="235" x2="172.263" y2="251.303" gradientUnits="userSpaceOnUse">
<stop stop-color="#23BCBA"/>
<stop offset="1" stop-color="#45E994"/>
</linearGradient>
</defs>
</svg>
