<svg width="161" height="167" viewBox="0 0 161 167" fill="none" xmlns="http://www.w3.org/2000/svg">
<path fill-rule="evenodd" clip-rule="evenodd" d="M154.548 11.1628H126.385L119.185 72.0793H129.152C146.057 72.0793 159.761 58.4427 159.761 41.6211V16.3503C159.761 13.4853 157.427 11.1628 154.548 11.1628ZM147.69 20.6539H126.478L123.883 62.5651L131.249 60.5112C141.441 57.6696 148.71 48.7219 149.367 38.2098L150.292 23.4085C150.295 23.355 150.297 23.3013 150.297 23.2476C150.297 21.8151 149.13 20.6539 147.69 20.6539Z" fill="#FFC300"/>
<g filter="url(#filter0_i_2_251)">
<path fill-rule="evenodd" clip-rule="evenodd" d="M6.45224 11.1628H34.6148L41.8147 72.0793H31.8478C14.9431 72.0793 1.23912 58.4427 1.23912 41.6211V16.3503C1.23912 13.4853 3.57312 11.1628 6.45224 11.1628ZM13.31 20.6539H34.5221L37.1171 62.5651L29.7506 60.5112C19.5587 57.6696 12.2896 48.7219 11.633 38.2098L10.7085 23.4085C10.7052 23.355 10.7035 23.3013 10.7035 23.2476C10.7035 21.8151 11.8705 20.6539 13.31 20.6539Z" fill="#FFC300"/>
</g>
<rect x="29.6721" y="151.438" width="101.656" height="3.89062" rx="1.94531" fill="#FFC300"/>
<g filter="url(#filter1_i_2_251)">
<path fill-rule="evenodd" clip-rule="evenodd" d="M37.4667 0.653107H80.4815H80.7747H123.789C125.225 0.653107 126.389 1.81717 126.389 3.25311V46.1463C126.389 46.1463 126.389 65.0088 112.162 81.5253C108.031 86.3211 103.878 89.8393 100.182 92.9706C92.1018 99.8156 86.2036 104.812 87.4859 117.266L80.7747 117.32V117.322L80.6281 117.321L80.4815 117.322V117.32L73.7703 117.266C75.0526 104.812 69.1544 99.8156 61.0742 92.9706C57.3779 89.8393 53.2249 86.3211 49.0939 81.5253C34.8667 65.0088 34.8667 46.1463 34.8667 46.1463V3.25311C34.8667 1.81717 36.0308 0.653107 37.4667 0.653107Z" fill="#FFC300"/>
</g>
<rect x="12.7295" y="163.109" width="24.7623" height="3.89062" rx="1.94531" fill="#FFC300"/>
<rect x="47.918" y="116.719" width="65.1639" height="35.0156" fill="#EC610A"/>
<rect x="58.3443" y="124.5" width="44.3115" height="19.4531" fill="#FFC300"/>
<rect x="51.8279" y="163.109" width="19.5492" height="3.89062" rx="1.94531" fill="#FFC300"/>
<path fill-rule="evenodd" clip-rule="evenodd" d="M80.5 55.1172L65.9451 62.7316L68.7248 46.6041L56.9497 35.1825L73.2225 32.8295L80.5 18.1562L87.7775 32.8295L104.05 35.1825L92.2752 46.6041L95.0549 62.7316L80.5 55.1172Z" fill="#EC610A"/>
<path d="M44.7294 36.5996C44.7294 36.5996 45.7782 54.8276 50.6024 64.5243" stroke="#EC610A" stroke-width="2.6" stroke-linecap="round" stroke-linejoin="round"/>
<path d="M54.6982 72.7344C54.6982 72.7344 58.268 78.0203 60.5866 80.284" stroke="#EC610A" stroke-width="2.6" stroke-linecap="round" stroke-linejoin="round"/>
<rect x="79.1967" y="163.109" width="13.0328" height="3.89062" rx="1.94531" fill="#FFC300"/>
<rect x="105.262" y="163.109" width="53.4344" height="3.89062" rx="1.94531" fill="#FFC300"/>
<defs>
<filter id="filter0_i_2_251" x="1.23912" y="11.1628" width="40.5756" height="60.9165" filterUnits="userSpaceOnUse" color-interpolation-filters="sRGB">
<feFlood flood-opacity="0" result="BackgroundImageFix"/>
<feBlend mode="normal" in="SourceGraphic" in2="BackgroundImageFix" result="shape"/>
<feColorMatrix in="SourceAlpha" type="matrix" values="0 0 0 0 0 0 0 0 0 0 0 0 0 0 0 0 0 0 127 0" result="hardAlpha"/>
<feOffset dx="-6"/>
<feComposite in2="hardAlpha" operator="arithmetic" k2="-1" k3="1"/>
<feColorMatrix type="matrix" values="0 0 0 0 0 0 0 0 0 0 0 0 0 0 0 0 0 0 0.08 0"/>
<feBlend mode="normal" in2="shape" result="effect1_innerShadow_2_251"/>
</filter>
<filter id="filter1_i_2_251" x="34.8667" y="0.653107" width="91.5227" height="116.669" filterUnits="userSpaceOnUse" color-interpolation-filters="sRGB">
<feFlood flood-opacity="0" result="BackgroundImageFix"/>
<feBlend mode="normal" in="SourceGraphic" in2="BackgroundImageFix" result="shape"/>
<feColorMatrix in="SourceAlpha" type="matrix" values="0 0 0 0 0 0 0 0 0 0 0 0 0 0 0 0 0 0 127 0" result="hardAlpha"/>
<feOffset dx="6"/>
<feComposite in2="hardAlpha" operator="arithmetic" k2="-1" k3="1"/>
<feColorMatrix type="matrix" values="0 0 0 0 0 0 0 0 0 0 0 0 0 0 0 0 0 0 0.08 0"/>
<feBlend mode="normal" in2="shape" result="effect1_innerShadow_2_251"/>
</filter>
</defs>
</svg>
